<?xml version="1.0" encoding="UTF-8"?>
<svg id="Layer_1" data-name="Layer 1" xmlns="http://www.w3.org/2000/svg" xmlns:xlink="http://www.w3.org/1999/xlink" viewBox="0 0 454.54 146.86">
  <defs>
    <style>
      .cls-1 {
        fill: #f5a044;
      }

      .cls-2 {
        fill: #ea5d57;
      }

      .cls-3 {
        fill: url(#_무제_그라디언트_54);
      }

      .cls-4 {
        fill: url(#_무제_그라디언트_55);
      }

      .cls-5 {
        fill: url(#_무제_그라디언트_47);
      }

      .cls-6 {
        fill: url(#_무제_그라디언트_53);
      }

      .cls-7 {
        fill: #f49e4b;
      }

      .cls-8 {
        fill: url(#_무제_그라디언트_48);
      }

      .cls-9 {
        fill: url(#_무제_그라디언트_52);
      }

      .cls-10 {
        fill: #ea5952;
      }
    </style>
    <linearGradient id="_무제_그라디언트_47" data-name="무제 그라디언트 47" x1="195.35" y1="87.88" x2="166.05" y2="73.72" gradientUnits="userSpaceOnUse">
      <stop offset="0" stop-color="#f49e4b"/>
      <stop offset="1" stop-color="#ed7556"/>
    </linearGradient>
    <linearGradient id="_무제_그라디언트_48" data-name="무제 그라디언트 48" x1="140.1" y1="40.18" x2="161.21" y2="58.81" gradientUnits="userSpaceOnUse">
      <stop offset="0" stop-color="#f49e4b"/>
      <stop offset=".81" stop-color="#ed7556"/>
    </linearGradient>
    <linearGradient id="_무제_그라디언트_54" data-name="무제 그라디언트 54" x1="418.2" y1="17.17" x2="424.63" y2="69.45" gradientUnits="userSpaceOnUse">
      <stop offset=".48" stop-color="#c93631"/>
      <stop offset="1" stop-color="#ea5952"/>
    </linearGradient>
    <linearGradient id="_무제_그라디언트_55" data-name="무제 그라디언트 55" x1="431.29" y1="37.6" x2="422.9" y2="17.47" gradientTransform="translate(848.88 42.32) rotate(-180)" gradientUnits="userSpaceOnUse">
      <stop offset=".01" stop-color="#c93631"/>
      <stop offset="1" stop-color="#ea5952"/>
    </linearGradient>
    <linearGradient id="_무제_그라디언트_53" data-name="무제 그라디언트 53" x1="330.43" y1="27.96" x2="336.86" y2="80.25" gradientTransform="translate(672.2 148.16) rotate(-180)" gradientUnits="userSpaceOnUse">
      <stop offset=".48" stop-color="#c93631"/>
      <stop offset="1" stop-color="#ea5d57"/>
    </linearGradient>
    <linearGradient id="_무제_그라디언트_52" data-name="무제 그라디언트 52" x1="335.54" y1="46.16" x2="336.1" y2="30.78" gradientUnits="userSpaceOnUse">
      <stop offset=".2" stop-color="#c93631"/>
      <stop offset="1" stop-color="#ea5d57"/>
    </linearGradient>
  </defs>
  <path class="cls-7" d="M52.89,37.42v7.92c-4.95-2.5-10.49-3.94-16.4-3.94C16.37,41.4,0,57.78,0,77.9s16.37,36.47,36.5,36.47c5.9,0,11.45-1.44,16.4-3.94v2.62h22.22V37.42h-22.22Zm-14.48,59.5c-10.19,0-18.44-8.25-18.44-18.41s8.25-18.44,18.44-18.44,18.41,8.25,18.41,18.44-8.25,18.41-18.41,18.41Z"/>
  <path class="cls-7" d="M255.23,146.86v-40.41c4.94,2.5,10.49,3.93,16.4,3.93,20.13,0,36.5-16.37,36.5-36.5s-16.37-36.47-36.5-36.47c-5.9,0-11.45,1.44-16.4,3.93v-3.81h-22.22v109.32h22.22Zm14.48-91.99c10.19,0,18.44,8.25,18.44,18.41s-8.25,18.44-18.44,18.44-18.41-8.25-18.41-18.44,8.25-18.41,18.41-18.41Z"/>
  <path class="cls-1" d="M227.44,75.63v4.49c.05-.73,.08-1.49,.08-2.25s-.03-1.51-.08-2.24Z"/>
  <path class="cls-1" d="M180.45,92.86s-.08-.02-.1-.05c.1,.08,.17,.15,.28,.2-.05-.05-.13-.1-.18-.15Z"/>
  <path class="cls-7" d="M207.74,37.42v8.07c-5-2.62-10.69-4.09-16.72-4.09-9.31,0-17.81,3.51-24.26,9.28l-2.8,2.8-28.73,28.75-.02,.03v.02c-1.74,8.35-9.15,14.63-18.03,14.63-10.19,0-18.44-8.25-18.44-18.41s8.25-18.44,18.44-18.44c9.25,0,16.87,6.79,18.21,15.66l19.52-19.52V1.28h-22.25V45.31c-4.92-2.5-10.49-3.91-16.39-3.91-20.13,0-36.5,16.37-36.5,36.47s16.37,36.5,36.5,36.5c7.11,0,13.77-2.04,19.37-5.57l42.43-42.4c.08-.1,.15-.18,.25-.25,.12-.18,.28-.33,.46-.48,.22-.28,.48-.53,.73-.73,.03-.05,.03-.08,.05-.05,.05-.08,.12-.13,.18-.18,.1-.1,.2-.2,.3-.25,.2-.18,.38-.33,.58-.5,.08-.05,.12-.1,.2-.15,.51-.4,1.01-.76,1.54-1.06,2.85-1.79,6.21-2.82,9.81-2.82,5.75,0,10.92,2.62,14.32,6.74,2.68,3.23,4.26,7.37,4.26,11.85s-1.59,8.63-4.26,11.83c-3.4,4.11-8.57,6.73-14.32,6.73-4.19,0-8.07-1.41-11.2-3.81-.08-.05-.18-.1-.25-.18-.02,0-.02-.02-.05-.05,0,0-.02,0-.02-.02-.1-.05-.18-.13-.28-.2-.33-.25-.66-.53-.96-.83-.12-.13-.28-.25-.4-.4-.83-.83-1.59-1.74-2.27-2.72,0-.02-.02-.02-.05-.05-.25-.38-.48-.73-.68-1.14-.1-.13-.15-.25-.23-.38-.13-.23-.25-.48-.35-.71-.05-.1-.1-.2-.15-.28-1.14-2.37-1.74-5.02-1.74-7.8,0-.45,.02-.88,.07-1.34l-15.76,15.79c5.73,12.64,18.46,21.41,33.19,21.41,6.03,0,11.73-1.46,16.72-4.09v2.83h19.7V37.42h-19.7Zm-75.09,19.6l.15,.33h-.15v-.33Z"/>
  <path class="cls-5" d="M209.09,70.79c1.08,2.35,1.66,4.94,1.66,7.69,0,4.49-1.59,8.63-4.26,11.83-3.4,4.11-8.58,6.74-14.32,6.74-4.19,0-8.07-1.41-11.2-3.81-.08-.05-.18-.1-.25-.18-.03,0-.03-.03-.05-.05,0,0-.02,0-.02-.03-.1-.05-.18-.13-.28-.2-.33-.25-.66-.53-.96-.83-.12-.13-.28-.25-.4-.4-.83-.83-1.59-1.74-2.27-2.72,0-.02-.02-.02-.05-.05-.25-.38-.48-.73-.68-1.14-.1-.12-.15-.25-.23-.38-.13-.23-.25-.48-.35-.71-.05-.1-.1-.2-.15-.28-1.14-2.37-1.74-5.02-1.74-7.79,0-.45,.02-.88,.08-1.34l-15.77,15.79c5.73,12.64,18.47,21.42,33.2,21.42,6.03,0,11.73-1.46,16.72-4.09v2.83h19.7v-42.3h-18.36Z"/>
  <path class="cls-1" d="M178.31,66.15c-.15,.15-.3,.33-.43,.48,.05-.08,.12-.15,.18-.23,.08-.1,.15-.18,.25-.25Z"/>
  <path class="cls-1" d="M179.75,64.74c-.08,.05-.15,.1-.2,.15,.05-.08,.12-.13,.18-.18l.02,.03Z"/>
  <path class="cls-1" d="M178.31,66.15c-.15,.15-.3,.33-.43,.48,.05-.08,.12-.15,.18-.23,.08-.1,.15-.18,.25-.25Z"/>
  <path class="cls-1" d="M179.75,64.74c-.08,.05-.15,.1-.2,.15,.05-.08,.12-.13,.18-.18l.02,.03Z"/>
  <path class="cls-1" d="M180.63,93.01c-.1-.05-.18-.13-.28-.2,.02,.03,.07,.03,.1,.05,.05,.05,.12,.1,.18,.15Z"/>
  <path class="cls-8" d="M154.91,13.63V56.11l-19.52,19.52c-.91-6.1-4.82-11.22-10.19-13.82v-19.4c2.62,.66,5.12,1.62,7.47,2.8v-12.38l22.25-19.2Z"/>
  <path class="cls-10" d="M393.26,12.41c0,6.85-5.55,12.41-12.41,12.41s-12.41-5.56-12.41-12.41,5.56-12.41,12.41-12.41,12.41,5.56,12.41,12.41Z"/>
  <rect class="cls-10" x="414.68" y="16.07" width="22.25" height="52.84" transform="translate(468.3 -383.3) rotate(90)"/>
  <path class="cls-10" d="M435.56,86.67V10.94h-22.25V92.14h0c0,12.29,9.96,22.25,22.25,22.25h18.98v-22.25h-13.5c-3.02,0-5.48-2.45-5.48-5.48Z"/>
  <rect class="cls-10" x="369.73" y="31.37" width="22.25" height="82.87" transform="translate(761.71 145.61) rotate(180)"/>
  <rect class="cls-3" x="413.32" y="53.62" width="22.25" height="28.59"/>
  <rect class="cls-4" x="413.32" y="10.94" width="22.25" height="20.43" transform="translate(848.88 42.32) rotate(180)"/>
  <rect class="cls-2" x="324.98" y="22.24" width="22.25" height="52.85" transform="translate(287.44 384.76) rotate(-90)"/>
  <path class="cls-2" d="M347.22,29.01V114.34h-22.25V23.53h0c0-12.29,9.96-22.25,22.25-22.25h15.3V23.53h-9.82c-3.02,0-5.48,2.45-5.48,5.48Z"/>
  <rect class="cls-6" x="324.98" y="59.79" width="22.25" height="28.59" transform="translate(672.2 148.16) rotate(180)"/>
  <rect class="cls-9" x="324.98" y="23.97" width="22.25" height="13.45"/>
</svg>